<svg version="1.1" id="Layer_1" xmlns="http://www.w3.org/2000/svg" xmlns:xlink="http://www.w3.org/1999/xlink" x="0px" y="0px"
	 width="100%" viewBox="0 0 895 895" enable-background="new 0 0 895 895" xml:space="preserve">
<path fill="#0B0F1B" opacity="1.000000" stroke="none" 
	d="
M431.000000,896.000000 
	C287.333344,896.000000 144.166672,896.000000 1.000000,896.000000 
	C1.000000,597.666687 1.000000,299.333344 1.000000,1.000000 
	C299.333344,1.000000 597.666687,1.000000 896.000000,1.000000 
	C896.000000,299.333344 896.000000,597.666687 896.000000,896.000000 
	C741.166687,896.000000 586.333313,896.000000 431.000000,896.000000 
M251.776459,625.824280 
	C251.699432,627.555786 251.622421,629.287292 250.867966,631.305115 
	C251.101471,633.917847 251.334991,636.530640 251.951309,639.696716 
	C259.472321,639.696716 266.993317,639.696716 274.491486,639.696716 
	C274.491486,608.457825 274.491486,577.306519 274.491486,545.972046 
	C266.792786,545.972046 259.344482,545.972046 251.135437,546.224304 
	C250.757156,547.406372 250.052048,548.587524 250.048859,549.770569 
	C249.984665,573.591064 249.977676,597.411865 250.067520,621.232239 
	C250.072250,622.484253 251.036331,623.732544 251.776459,625.824280 
M341.347992,566.682617 
	C341.566620,565.778870 341.785248,564.875183 342.918701,563.753967 
	C352.204559,563.753967 361.490387,563.753967 371.042358,563.753967 
	C371.042358,557.664001 371.042358,551.925537 371.042358,546.191406 
	C342.891876,546.191406 314.915588,546.191406 286.958435,546.191406 
	C286.958435,552.149536 286.958435,557.753540 286.958435,563.938843 
	C296.794800,563.938843 306.393951,563.938843 315.991882,564.792114 
	C316.459106,566.564819 316.926331,568.337463 317.679718,570.995300 
	C317.580170,581.627808 317.480621,592.260315 316.736359,603.293457 
	C316.951355,604.562927 317.166351,605.832458 317.669586,607.825989 
	C317.573303,608.846069 317.477051,609.866211 316.671204,611.394836 
	C316.906891,615.965515 317.142609,620.536133 317.667145,625.870056 
	C317.568970,627.211670 317.470825,628.553345 316.730621,630.296448 
	C316.945587,631.564392 317.160553,632.832336 317.666138,634.858459 
	C317.752655,636.612305 317.839203,638.366089 317.919617,639.995728 
	C325.636292,639.995728 332.870453,639.995728 340.382751,639.995728 
	C340.382751,626.271912 340.336578,612.838989 340.397308,599.406433 
	C340.446014,588.625671 340.624329,577.845459 341.347992,566.682617 
M574.814209,572.237366 
	C575.032471,573.198303 575.250732,574.159180 575.720947,575.841797 
	C575.636902,576.846313 575.552856,577.850891 574.732483,579.357483 
	C574.551147,588.479004 574.350525,597.600281 574.244263,606.722717 
	C574.238892,607.189026 575.043213,607.664856 575.720703,608.793213 
	C575.637268,609.480652 575.553833,610.168152 574.746826,611.339844 
	C574.989014,614.605408 575.231201,617.870911 575.722656,621.793091 
	C575.639771,622.479919 575.556885,623.166748 574.743408,624.346497 
	C574.969421,628.271179 575.195374,632.195923 575.692139,636.825256 
	C576.240784,637.972168 576.757568,640.097839 577.343079,640.116943 
	C584.406799,640.347107 591.480591,640.266052 598.922974,640.266052 
	C598.922974,630.732910 598.922974,621.985168 598.922974,612.998474 
	C604.294678,612.998474 609.280212,613.190002 614.242371,612.931396 
	C617.573608,612.757874 619.643372,613.682251 621.493103,616.684570 
	C625.854248,623.763306 630.651855,630.578003 635.420105,637.396545 
	C636.272522,638.615417 637.804199,640.119934 639.068970,640.164551 
	C646.486755,640.425903 653.918457,640.292969 662.068298,640.292969 
	C654.642822,629.563293 647.751038,619.604858 640.865479,609.655334 
	C641.393677,609.263794 641.644165,609.040649 641.927612,608.873535 
	C656.259521,600.424194 662.227478,588.533264 659.635681,573.579590 
	C657.088806,558.885071 647.358948,548.961365 630.643494,547.049011 
	C616.817627,545.467346 602.731445,546.143127 588.759705,545.865662 
	C584.501282,545.781128 580.239746,545.852539 575.458984,545.852539 
	C575.458984,554.927429 575.458984,563.400879 574.814209,572.237366 
M445.060944,457.612885 
	C467.671173,414.219849 490.281433,370.826843 513.115784,327.003662 
	C521.512207,336.930908 529.378052,346.195190 537.204224,355.492859 
	C547.199890,367.367981 558.837524,366.168091 566.100647,352.322693 
	C577.224426,331.118164 588.203003,309.837463 599.243164,288.589081 
	C604.116089,279.210419 608.988953,269.831726 614.030884,260.127655 
	C603.234985,258.685974 594.492920,254.386459 587.935486,245.838684 
	C574.693970,271.578522 561.733093,296.772858 548.455139,322.583710 
	C539.871094,312.376190 531.758118,302.704132 523.617676,293.055328 
	C514.164856,281.850983 502.414062,283.055634 495.666626,296.026642 
	C478.400787,329.217743 461.218262,362.452148 443.988739,395.662140 
	C436.954437,409.220764 429.884918,422.761108 422.504181,436.938385 
	C420.833344,433.865845 419.459778,431.425293 418.163788,428.944244 
	C389.841156,374.723541 361.538849,320.492218 333.143555,266.309601 
	C332.434418,264.956390 330.739441,263.234619 329.466003,263.202515 
	C319.354187,262.947510 309.233124,263.060455 298.253784,263.060455 
	C299.687469,266.008942 300.763153,268.372986 301.965424,270.670776 
	C316.614349,298.667206 331.292664,326.648315 345.942047,354.644501 
	C366.680969,394.278290 387.417816,433.913208 408.113617,473.569489 
	C411.105011,479.301514 415.279388,483.111664 422.084137,483.205841 
	C429.043488,483.302124 433.632294,479.789001 436.675079,473.764435 
	C439.297821,468.571350 442.066040,463.451752 445.060944,457.612885 
M748.707092,629.870728 
	C749.901917,632.612000 750.958374,635.427368 752.364624,638.055542 
	C752.875732,639.010864 754.206726,640.113831 755.188110,640.137512 
	C762.443176,640.312805 769.704468,640.232361 777.425964,640.232361 
	C765.164246,614.105957 753.202026,588.575989 741.195557,563.066833 
	C738.521118,557.384644 737.067383,549.589355 732.547913,546.744629 
	C727.985474,543.872803 720.305786,546.076538 714.003845,545.790100 
	C711.115051,545.658813 709.641785,546.548096 708.412964,549.295776 
	C700.141418,567.790222 691.669556,586.195129 683.229065,604.613770 
	C677.866821,616.315186 672.446838,627.990234 666.776306,640.276062 
	C674.437134,640.276062 681.391357,640.385559 688.334351,640.156433 
	C689.361572,640.122559 690.724304,638.676880 691.267029,637.560974 
	C693.517761,632.933838 695.724731,628.261597 697.523193,623.447327 
	C698.600891,620.562622 700.280457,619.935913 703.103943,619.978088 
	C713.590393,620.134460 724.080200,620.057312 734.568787,620.066956 
	C744.488831,620.076050 744.488831,620.075562 748.707092,629.870728 
M562.724121,640.279053 
	C563.675171,640.215088 564.626221,640.151062 565.914917,640.064392 
	C553.777222,614.136047 541.838745,588.589661 529.854004,563.065063 
	C527.177673,557.365051 525.724854,549.430664 521.195862,546.713867 
	C516.391113,543.831726 508.594574,545.937012 502.104614,545.864685 
	C501.938049,545.862854 501.730286,545.802002 501.611084,545.877747 
	C500.134521,546.816162 497.934998,547.434326 497.312775,548.778809 
	C485.448395,574.413574 473.766388,600.132812 462.056519,625.839111 
	C459.956299,630.449707 457.900818,635.080627 455.585907,640.233582 
	C462.584808,640.233582 468.895081,640.098145 475.194824,640.296326 
	C477.933807,640.382568 479.317871,639.609253 480.297302,636.910950 
	C482.051666,632.077942 484.170013,627.352783 486.504791,622.770386 
	C487.142059,621.519653 489.083221,620.187500 490.444763,620.167480 
	C503.602722,619.973694 516.766296,619.959656 529.923340,620.182922 
	C531.383240,620.207642 533.412903,621.707031 534.146301,623.075623 
	C536.573608,627.605103 538.317322,632.503296 540.784119,637.007629 
	C541.594116,638.486572 543.751465,639.994263 545.391418,640.111755 
	C550.861389,640.503601 556.376099,640.271118 562.724121,640.279053 
M221.047211,545.857239 
	C219.776382,547.137634 218.004150,548.193176 217.313049,549.733643 
	C211.121902,563.533447 205.139252,577.426575 199.056641,591.275391 
	C196.020813,598.187256 192.904556,605.063782 189.606506,612.444519 
	C188.847336,610.737061 188.369232,609.682373 187.907700,608.620544 
	C179.363831,588.963440 170.860489,569.288452 162.204422,549.680908 
	C161.532364,548.158630 159.844833,546.075806 158.540070,546.009460 
	C151.431931,545.648315 144.295807,545.837769 136.588150,545.837769 
	C137.497482,548.032288 138.151520,549.700989 138.873581,551.339783 
	C149.732513,575.985168 160.577255,600.636963 171.485535,625.260559 
	C173.692017,630.241272 174.931366,637.027405 178.826279,639.498657 
	C182.775269,642.004395 189.479767,639.949158 194.941376,640.364868 
	C198.664078,640.648315 200.495865,639.421936 202.003754,635.961243 
	C211.099457,615.085999 220.455292,594.324158 229.717484,573.521423 
	C233.758682,564.444946 237.784256,555.361511 242.005615,545.856384 
	C234.926117,545.856384 228.435211,545.856384 221.047211,545.857239 
M448.493286,545.849670 
	C425.275879,545.849670 402.058472,545.849670 378.756165,545.849670 
	C378.756165,552.139832 378.756165,557.735107 378.756165,563.778259 
	C388.915070,563.778259 398.807678,563.778259 409.070190,563.778259 
	C409.070190,589.448730 409.070190,614.671631 409.070190,639.986938 
	C416.872162,639.986938 424.288818,639.986938 432.065552,639.986938 
	C432.065552,614.467834 432.065552,589.230713 432.065552,563.403870 
	C442.458130,563.403870 452.496613,563.403870 462.316956,563.403870 
	C462.316956,557.230164 462.316956,551.657288 462.316956,545.850464 
	C457.792755,545.850464 453.640808,545.850464 448.493286,545.849670 
M636.863403,230.182449 
	C637.472168,228.816391 638.210388,227.492340 638.669250,226.077652 
	C642.350830,214.725006 635.715637,202.484024 624.238770,199.371094 
	C612.754211,196.256058 600.682251,203.573105 598.245483,215.126129 
	C596.287720,224.407928 601.498535,234.734528 610.162842,238.743561 
	C619.476562,243.053131 629.577820,240.005798 636.863403,230.182449 
M662.856750,716.569214 
	C670.815369,716.878296 677.308289,714.118164 681.160278,706.928833 
	C684.449341,700.790161 684.102600,694.352356 680.708618,688.344482 
	C676.529602,680.946960 667.186218,677.676819 658.566406,680.218567 
	C650.472961,682.604980 644.915344,690.455566 645.484253,698.697998 
	C646.134888,708.124084 652.107178,714.522400 662.856750,716.569214 
M199.385300,698.575806 
	C199.385300,707.646240 199.385300,716.716614 199.385300,726.161499 
	C201.577499,725.974365 202.966476,725.855774 204.729919,725.705261 
	C204.729919,721.415771 204.729919,717.490356 204.729919,713.385681 
	C214.388824,717.826538 220.337402,717.180115 224.798889,711.437927 
	C228.683838,706.437744 228.651550,698.286743 224.726883,693.254517 
	C220.349396,687.641663 213.845810,686.845276 206.336853,690.437561 
	C204.113281,689.631470 202.495132,688.501709 201.140854,688.759277 
	C200.338821,688.911865 199.700516,691.209961 199.447464,692.625427 
	C199.159210,694.237854 199.381760,695.941528 199.385300,698.575806 
M689.184875,708.789246 
	C687.465271,711.054993 688.070679,712.636780 690.502747,713.920837 
	C696.441467,717.056580 702.576172,717.410400 708.829895,715.210449 
	C713.018738,713.736877 715.327820,710.617737 715.380188,706.139587 
	C715.431274,701.768616 713.059692,698.937988 709.023438,697.590515 
	C705.404724,696.382446 701.545715,695.762573 698.111816,694.187439 
	C696.375793,693.390991 694.207458,690.984985 694.303284,689.434631 
	C694.407837,687.743469 696.746094,685.060730 698.394531,684.828857 
	C701.865723,684.340637 705.677979,684.633911 709.058655,685.613159 
	C712.366455,686.571411 713.248657,685.554260 713.613037,682.458374 
	C707.809387,678.933167 701.695557,678.416443 695.425659,680.497437 
	C691.309387,681.863708 688.719177,684.925293 688.517090,689.388062 
	C688.310730,693.944458 690.779480,696.955139 694.961182,698.433472 
	C698.084656,699.537720 701.342102,700.256714 704.503540,701.261658 
	C707.404663,702.183899 710.557861,703.169312 710.050964,707.132935 
	C709.570435,710.890747 706.311279,712.155823 703.398254,711.777832 
	C698.764954,711.176636 694.269653,709.512085 689.184875,708.789246 
M248.871353,716.290100 
	C250.162231,715.999146 251.767197,716.086121 252.673691,715.332642 
	C254.205704,714.059387 256.692291,711.686157 256.321472,710.774597 
	C254.965805,707.441956 252.862747,710.274536 251.146317,710.999023 
	C244.879303,713.644470 238.974823,710.857788 237.294128,703.883911 
	C244.467346,703.883911 251.522461,703.883911 258.488556,703.883911 
	C259.528717,695.386047 255.100861,689.228943 247.726776,688.277954 
	C239.842789,687.261230 233.033371,692.461975 232.094681,700.216980 
	C230.911987,709.987854 237.190918,716.349854 248.871353,716.290100 
M519.302490,688.157837 
	C516.248840,688.820435 513.099304,689.207092 510.168915,690.224670 
	C507.339630,691.207092 507.284363,693.095642 509.608307,694.971924 
	C520.071899,690.910583 525.100098,692.495300 524.608887,700.094299 
	C521.835388,700.094299 519.024902,699.981628 516.226379,700.117188 
	C509.872223,700.424866 506.470367,703.494568 506.692383,708.551331 
	C506.911652,713.545654 510.741882,716.565186 516.843140,716.491516 
	C521.073792,716.440430 525.148193,713.117432 529.538025,715.860657 
	C529.607422,715.904114 529.981689,715.459656 530.397705,715.070984 
	C530.397705,709.927856 530.620300,704.608459 530.343750,699.315247 
	C529.961182,691.992310 527.642517,689.656860 519.302490,688.157837 
M619.423340,703.966370 
	C621.862549,703.966370 624.301697,703.966370 626.683960,703.966370 
	C627.306641,695.507507 623.491577,689.878784 616.642334,688.417969 
	C610.026733,687.006897 603.328064,690.678772 600.998047,696.993347 
	C598.461304,703.868103 601.043274,711.418152 607.066284,714.737366 
	C613.041931,718.030518 621.237854,716.598633 624.758789,710.787109 
	C623.086121,710.399963 621.320923,710.217224 619.912170,710.840271 
	C613.103638,713.851562 606.721436,711.007507 605.475830,703.965759 
	C609.832397,703.965759 614.142700,703.965759 619.423340,703.966370 
M395.825348,689.369141 
	C390.890594,687.245789 386.047241,687.901794 381.323425,689.999817 
	C378.556824,691.228577 377.823761,692.950500 380.539124,695.088806 
	C390.691498,690.707703 396.008972,692.384888 395.430756,700.039612 
	C393.979736,700.039612 392.495850,700.025879 391.012329,700.043152 
	C389.348328,700.062561 387.674866,700.007019 386.022675,700.164368 
	C380.734070,700.668030 377.398163,703.776794 377.378143,708.108643 
	C377.356842,712.714478 380.868896,716.340210 386.244415,716.344116 
	C391.061157,716.347656 395.878510,715.529053 401.109894,715.033997 
	C401.109894,709.493835 401.583130,703.485474 400.900848,697.611389 
	C400.582123,694.867554 398.028137,692.383301 395.825348,689.369141 
M332.035248,690.271667 
	C329.989471,689.612122 327.979004,688.554688 325.891144,688.369446 
	C320.204712,687.864929 315.257629,689.568970 312.186676,694.713013 
	C309.080444,699.916199 309.392456,705.364685 312.505066,710.362244 
	C315.632294,715.383423 320.556610,716.989685 326.361786,716.242432 
	C332.134216,715.499390 335.982971,712.195984 337.522827,706.856384 
	C339.309143,700.661926 338.027496,694.958008 332.035248,690.271667 
M366.806671,690.588989 
	C361.211853,686.853027 355.830017,687.713684 351.461487,690.774475 
	C349.179626,689.785339 347.414612,689.020203 345.318268,688.111511 
	C345.318268,698.162964 345.318268,706.921570 345.318268,716.049316 
	C347.032104,715.923645 348.407471,715.822815 350.058472,715.701721 
	C350.058472,712.999817 350.055908,710.691772 350.059204,708.383789 
	C350.062531,706.055969 349.971527,703.722717 350.098114,701.401428 
	C350.406555,695.744873 353.285217,692.870605 358.420227,692.943970 
	C363.228455,693.012573 365.334900,695.290588 365.537659,701.136963 
	C365.708221,706.054932 365.572754,710.983521 365.572754,715.536133 
	C369.905609,716.794434 371.093048,715.511658 370.893463,712.117798 
	C370.669373,708.306763 371.292145,704.402771 370.712494,700.668640 
	C370.201996,697.379761 368.541992,694.269226 366.806671,690.588989 
M544.108398,703.839600 
	C544.111816,703.340942 544.089050,702.840515 544.122559,702.343872 
	C544.569458,695.720032 547.207703,692.794250 552.585022,692.947327 
	C557.715271,693.093384 559.681152,695.724731 559.774292,702.726868 
	C559.831238,707.010925 559.784851,711.296387 559.784851,715.773804 
	C561.660034,715.773804 563.029785,715.773804 564.836182,715.773804 
	C564.836182,711.684265 564.852722,707.891052 564.829407,704.098083 
	C564.817139,702.104858 564.911560,700.088867 564.653259,698.123230 
	C563.725281,691.062683 558.069519,687.009277 551.101379,688.551514 
	C548.759583,689.069763 546.571594,690.283142 544.313293,691.178833 
	C544.459229,690.830444 544.605164,690.482056 544.751099,690.133667 
	C543.077576,689.480591 541.404114,688.827576 539.362915,688.031006 
	C539.362915,698.067810 539.362915,706.948303 539.362915,716.177124 
	C541.159790,715.970215 542.541016,715.811218 544.105591,715.631042 
	C544.105591,711.723572 544.105591,708.242981 544.108398,703.839600 
M490.131989,688.272156 
	C486.512451,689.044556 482.892914,689.816895 480.368927,690.355530 
	C478.119598,689.509827 476.425171,688.872742 474.334930,688.086792 
	C474.334930,698.007812 474.334930,706.772278 474.334930,715.764038 
	C475.983337,715.764038 477.364838,715.764038 479.206360,715.764038 
	C479.206360,713.024719 479.190125,710.562256 479.210907,708.100098 
	C479.231964,705.604004 479.086121,703.084534 479.372864,700.617065 
	C479.998535,695.232910 482.900879,692.740540 487.945557,692.936035 
	C492.586548,693.115845 494.823608,695.768127 494.906281,701.387329 
	C494.976562,706.162659 494.920776,710.939758 494.920776,716.107788 
	C496.969330,715.929932 498.344208,715.810608 499.955139,715.670715 
	C499.955139,710.288574 500.028839,705.309570 499.937378,700.333496 
	C499.809601,693.380554 497.657867,690.611267 490.131989,688.272156 
M288.817322,715.822815 
	C292.449371,715.845459 296.159729,716.342468 299.691833,715.759521 
	C303.353577,715.155212 305.888062,712.714111 306.149658,708.566772 
	C306.420197,704.278198 303.979065,702.078491 300.289459,701.037964 
	C297.746002,700.320679 294.984406,700.310486 292.509308,699.444336 
	C291.188721,698.982178 290.269165,697.374146 289.168610,696.283325 
	C290.433777,695.160278 291.659637,693.145935 292.971771,693.088074 
	C296.352386,692.939026 299.771149,693.655640 303.551117,694.067444 
	C303.915955,693.326782 304.474243,692.193420 305.138306,690.845337 
	C299.600983,687.762329 294.017761,686.729492 288.809143,689.829163 
	C286.556122,691.169861 284.362030,694.687073 284.406036,697.175537 
	C284.443573,699.297546 287.403107,701.871765 289.667145,703.298218 
	C291.643097,704.543152 294.567047,704.173523 296.853455,705.073059 
	C298.465302,705.707214 299.711182,707.271606 301.120453,708.420654 
	C299.546417,709.595886 298.028259,711.648071 296.385925,711.752747 
	C293.506683,711.936340 290.564240,710.814026 287.621063,710.474182 
	C286.537262,710.348938 285.376556,710.889954 284.250916,711.127075 
	C284.743652,712.303589 285.069275,713.600098 285.794128,714.610046 
	C286.204803,715.182129 287.270416,715.284180 288.817322,715.822815 
M588.673096,688.641357 
	C585.582642,688.911194 582.307800,688.622559 579.440552,689.568848 
	C573.714111,691.458740 570.605957,697.169250 571.147949,703.456848 
	C571.687744,709.718689 575.714172,714.573364 581.551941,716.000854 
	C587.974792,717.571411 592.649292,715.780029 596.974365,708.952576 
	C594.217957,709.373047 592.284485,709.163269 590.959717,709.962463 
	C586.571289,712.610107 581.839722,712.380005 578.703735,708.941406 
	C575.714661,705.663818 575.731201,698.898315 578.736389,695.548401 
	C581.591919,692.365295 586.630493,691.715271 590.487915,694.661621 
	C593.009888,696.587830 594.426331,696.177368 596.622742,693.177124 
	C594.072083,691.639648 591.755127,690.243103 588.673096,688.641357 
M448.701996,681.697815 
	C450.150024,681.202209 451.598053,680.706604 453.046082,680.210938 
	C451.785706,679.250793 450.631805,677.676636 449.246613,677.436523 
	C443.185577,676.385742 439.870575,679.919373 438.859711,687.389343 
	C437.043915,688.783508 435.670013,689.838440 434.296112,690.893372 
	C435.697388,691.913269 437.098663,692.933167 439.307556,694.540894 
	C439.307556,700.990601 439.307556,708.401306 439.307556,716.207092 
	C441.259796,715.994019 442.630798,715.844421 444.296326,715.662598 
	C444.296326,707.947632 444.296326,700.675659 444.296326,692.876404 
	C446.249908,692.876404 447.906128,693.075562 449.478638,692.799011 
	C450.369843,692.642273 451.123840,691.705322 451.939606,691.119812 
	C451.146973,690.338745 450.475861,689.144897 449.534790,688.867859 
	C447.884552,688.381958 446.068848,688.458069 444.322418,688.298706 
	C443.970978,687.783752 443.619537,687.268738 443.268097,686.753784 
	C444.789398,685.081909 446.310699,683.410034 448.701996,681.697815 
M270.813873,713.139709 
	C270.817871,709.986328 270.796844,706.832703 270.830811,703.679626 
	C270.912415,696.096924 272.213043,694.528625 279.876862,692.947510 
	C280.079712,691.650940 280.297211,690.260559 280.685760,687.776917 
	C277.085022,688.886230 274.216675,689.769897 271.878937,690.490112 
	C269.955444,689.691711 268.152710,688.943420 265.832489,687.980347 
	C265.832489,698.017273 265.832489,706.875183 265.832489,717.209778 
	C268.075623,715.780029 269.435730,714.913147 270.813873,713.139709 
M415.069336,710.366699 
	C415.069336,699.614136 415.069336,688.861511 415.069336,677.697021 
	C412.977814,677.899353 411.605316,678.032104 410.303223,678.158081 
	C410.303223,690.986511 410.303223,703.371765 410.303223,715.847046 
	C411.923035,715.847046 413.201538,715.847046 414.796967,715.847046 
	C414.894318,714.229065 414.981598,712.778503 415.069336,710.366699 
M459.996216,692.672546 
	C459.996216,700.289551 459.996216,707.906555 459.996216,715.754517 
	C461.923340,715.754517 463.304230,715.754517 464.859955,715.754517 
	C464.859955,706.735840 464.859955,697.995605 464.859955,689.127258 
	C462.316162,688.705139 459.811676,687.698608 459.996216,692.672546 
M459.195892,681.078674 
	C460.763702,681.819214 462.288177,682.880859 463.926147,683.102051 
	C464.409027,683.167236 465.737701,680.837524 465.695709,679.639893 
	C465.664673,678.755249 463.660828,677.037048 463.192444,677.235962 
	C461.658722,677.887451 460.425018,679.245361 459.195892,681.078674 
z"/>
<path fill="#FDFDFD" opacity="1.000000" stroke="none" 
	d="
M444.915436,457.956268 
	C442.066040,463.451752 439.297821,468.571350 436.675079,473.764435 
	C433.632294,479.789001 429.043488,483.302124 422.084137,483.205841 
	C415.279388,483.111664 411.105011,479.301514 408.113617,473.569489 
	C387.417816,433.913208 366.680969,394.278290 345.942047,354.644501 
	C331.292664,326.648315 316.614349,298.667206 301.965424,270.670776 
	C300.763153,268.372986 299.687469,266.008942 298.253784,263.060455 
	C309.233124,263.060455 319.354187,262.947510 329.466003,263.202515 
	C330.739441,263.234619 332.434418,264.956390 333.143555,266.309601 
	C361.538849,320.492218 389.841156,374.723541 418.163788,428.944244 
	C419.459778,431.425293 420.833344,433.865845 422.504181,436.938385 
	C429.884918,422.761108 436.954437,409.220764 443.988739,395.662140 
	C461.218262,362.452148 478.400787,329.217743 495.666626,296.026642 
	C502.414062,283.055634 514.164856,281.850983 523.617676,293.055328 
	C531.758118,302.704132 539.871094,312.376190 548.455139,322.583710 
	C561.733093,296.772858 574.693970,271.578522 587.935486,245.838684 
	C594.492920,254.386459 603.234985,258.685974 614.030884,260.127655 
	C608.988953,269.831726 604.116089,279.210419 599.243164,288.589081 
	C588.203003,309.837463 577.224426,331.118164 566.100647,352.322693 
	C558.837524,366.168091 547.199890,367.367981 537.204224,355.492859 
	C529.378052,346.195190 521.512207,336.930908 513.115784,327.003662 
	C490.281433,370.826843 467.671173,414.219849 444.915436,457.956268 
z"/>
<path fill="#FCFCFC" opacity="1.000000" stroke="none" 
	d="
M575.473999,623.853577 
	C575.556885,623.166748 575.639771,622.479919 575.704956,621.007080 
	C575.614929,617.099182 575.542725,613.977417 575.470459,610.855591 
	C575.553833,610.168152 575.637268,609.480652 575.703674,607.995728 
	C575.614075,597.750610 575.541443,588.303040 575.468811,578.855408 
	C575.552856,577.850891 575.636902,576.846313 575.702393,575.081909 
	C575.608887,573.506104 575.533936,572.690247 575.458984,571.874329 
	C575.458984,563.400879 575.458984,554.927429 575.458984,545.852539 
	C580.239746,545.852539 584.501282,545.781128 588.759705,545.865662 
	C602.731445,546.143127 616.817627,545.467346 630.643494,547.049011 
	C647.358948,548.961365 657.088806,558.885071 659.635681,573.579590 
	C662.227478,588.533264 656.259521,600.424194 641.927612,608.873535 
	C641.644165,609.040649 641.393677,609.263794 640.865479,609.655334 
	C647.751038,619.604858 654.642822,629.563293 662.068298,640.292969 
	C653.918457,640.292969 646.486755,640.425903 639.068970,640.164551 
	C637.804199,640.119934 636.272522,638.615417 635.420105,637.396545 
	C630.651855,630.578003 625.854248,623.763306 621.493103,616.684570 
	C619.643372,613.682251 617.573608,612.757874 614.242371,612.931396 
	C609.280212,613.190002 604.294678,612.998474 598.922974,612.998474 
	C598.922974,621.985168 598.922974,630.732910 598.922974,640.266052 
	C591.480591,640.266052 584.406799,640.347107 577.343079,640.116943 
	C576.757568,640.097839 576.240784,637.972168 575.676758,636.014465 
	C575.598938,631.420288 575.536499,627.636963 575.473999,623.853577 
M599.343750,563.839355 
	C599.211792,564.230591 599.079773,564.621887 598.707031,565.921875 
	C598.781067,575.276306 598.855103,584.630798 598.868652,594.648132 
	C599.248840,594.776611 599.629089,594.905151 600.924805,595.244324 
	C608.060547,595.166199 615.221008,595.433777 622.325867,594.924988 
	C631.786804,594.247253 637.151978,588.328918 637.100891,579.486755 
	C637.048767,570.462708 631.857666,564.651123 622.384460,564.029114 
	C614.958191,563.541565 607.475098,563.920166 599.343750,563.839355 
z"/>
<path fill="#FCFDFD" opacity="1.000000" stroke="none" 
	d="
M748.517090,629.539612 
	C744.488831,620.075562 744.488831,620.076050 734.568787,620.066956 
	C724.080200,620.057312 713.590393,620.134460 703.103943,619.978088 
	C700.280457,619.935913 698.600891,620.562622 697.523193,623.447327 
	C695.724731,628.261597 693.517761,632.933838 691.267029,637.560974 
	C690.724304,638.676880 689.361572,640.122559 688.334351,640.156433 
	C681.391357,640.385559 674.437134,640.276062 666.776306,640.276062 
	C672.446838,627.990234 677.866821,616.315186 683.229065,604.613770 
	C691.669556,586.195129 700.141418,567.790222 708.412964,549.295776 
	C709.641785,546.548096 711.115051,545.658813 714.003845,545.790100 
	C720.305786,546.076538 727.985474,543.872803 732.547913,546.744629 
	C737.067383,549.589355 738.521118,557.384644 741.195557,563.066833 
	C753.202026,588.575989 765.164246,614.105957 777.425964,640.232361 
	C769.704468,640.232361 762.443176,640.312805 755.188110,640.137512 
	C754.206726,640.113831 752.875732,639.010864 752.364624,638.055542 
	C750.958374,635.427368 749.901917,632.612000 748.517090,629.539612 
M722.535034,569.192261 
	C721.809265,569.605469 720.685120,569.844666 720.417236,570.457947 
	C716.243591,580.012878 712.168396,589.610962 708.109070,599.215393 
	C707.645752,600.311523 707.413330,601.505127 707.062683,602.691162 
	C717.061523,602.691162 726.579651,602.691162 736.679749,602.691162 
	C731.942322,591.444336 727.396118,580.651489 722.535034,569.192261 
z"/>
<path fill="#FCFDFD" opacity="1.000000" stroke="none" 
	d="
M562.298889,640.278442 
	C556.376099,640.271118 550.861389,640.503601 545.391418,640.111755 
	C543.751465,639.994263 541.594116,638.486572 540.784119,637.007629 
	C538.317322,632.503296 536.573608,627.605103 534.146301,623.075623 
	C533.412903,621.707031 531.383240,620.207642 529.923340,620.182922 
	C516.766296,619.959656 503.602722,619.973694 490.444763,620.167480 
	C489.083221,620.187500 487.142059,621.519653 486.504791,622.770386 
	C484.170013,627.352783 482.051666,632.077942 480.297302,636.910950 
	C479.317871,639.609253 477.933807,640.382568 475.194824,640.296326 
	C468.895081,640.098145 462.584808,640.233582 455.585907,640.233582 
	C457.900818,635.080627 459.956299,630.449707 462.056519,625.839111 
	C473.766388,600.132812 485.448395,574.413574 497.312775,548.778809 
	C497.934998,547.434326 500.134521,546.816162 501.611084,545.877747 
	C501.730286,545.802002 501.938049,545.862854 502.104614,545.864685 
	C508.594574,545.937012 516.391113,543.831726 521.195862,546.713867 
	C525.724854,549.430664 527.177673,557.365051 529.854004,563.065063 
	C541.838745,588.589661 553.777222,614.136047 565.914917,640.064392 
	C564.626221,640.151062 563.675171,640.215088 562.298889,640.278442 
M511.768738,570.858887 
	C511.289307,569.965454 510.809875,569.072021 510.083374,567.718140 
	C505.014923,579.694153 500.209290,591.049194 495.227234,602.820984 
	C505.640747,602.820984 515.224854,602.820984 525.450378,602.820984 
	C520.872803,592.174194 516.441345,581.867249 511.768738,570.858887 
z"/>
<path fill="#FCFCFC" opacity="1.000000" stroke="none" 
	d="
M221.495758,545.856812 
	C228.435211,545.856384 234.926117,545.856384 242.005615,545.856384 
	C237.784256,555.361511 233.758682,564.444946 229.717484,573.521423 
	C220.455292,594.324158 211.099457,615.085999 202.003754,635.961243 
	C200.495865,639.421936 198.664078,640.648315 194.941376,640.364868 
	C189.479767,639.949158 182.775269,642.004395 178.826279,639.498657 
	C174.931366,637.027405 173.692017,630.241272 171.485535,625.260559 
	C160.577255,600.636963 149.732513,575.985168 138.873581,551.339783 
	C138.151520,549.700989 137.497482,548.032288 136.588150,545.837769 
	C144.295807,545.837769 151.431931,545.648315 158.540070,546.009460 
	C159.844833,546.075806 161.532364,548.158630 162.204422,549.680908 
	C170.860489,569.288452 179.363831,588.963440 187.907700,608.620544 
	C188.369232,609.682373 188.847336,610.737061 189.606506,612.444519 
	C192.904556,605.063782 196.020813,598.187256 199.056641,591.275391 
	C205.139252,577.426575 211.121902,563.533447 217.313049,549.733643 
	C218.004150,548.193176 219.776382,547.137634 221.495758,545.856812 
z"/>
<path fill="#FDFDFD" opacity="1.000000" stroke="none" 
	d="
M317.372681,629.894958 
	C317.470825,628.553345 317.568970,627.211670 317.649475,625.029663 
	C317.548157,619.754944 317.464478,615.320618 317.380798,610.886292 
	C317.477051,609.866211 317.573303,608.846069 317.651123,607.054199 
	C317.548798,605.152527 317.464935,604.022705 317.381042,602.892822 
	C317.480621,592.260315 317.580170,581.627808 317.660400,570.112549 
	C317.091736,567.466125 316.542419,565.702454 315.993103,563.938843 
	C306.393951,563.938843 296.794800,563.938843 286.958435,563.938843 
	C286.958435,557.753540 286.958435,552.149536 286.958435,546.191406 
	C314.915588,546.191406 342.891876,546.191406 371.042358,546.191406 
	C371.042358,551.925537 371.042358,557.664001 371.042358,563.753967 
	C361.490387,563.753967 352.204559,563.753967 342.036377,563.866150 
	C341.017731,565.007202 340.881409,566.036133 340.745117,567.065002 
	C340.624329,577.845459 340.446014,588.625671 340.397308,599.406433 
	C340.336578,612.838989 340.382751,626.271912 340.382751,639.995728 
	C332.870453,639.995728 325.636292,639.995728 317.919617,639.995728 
	C317.839203,638.366089 317.752655,636.612305 317.646912,634.070007 
	C317.542694,632.152710 317.457672,631.023804 317.372681,629.894958 
z"/>
<path fill="#FBFBFB" opacity="1.000000" stroke="none" 
	d="
M448.991089,545.850098 
	C453.640808,545.850464 457.792755,545.850464 462.316956,545.850464 
	C462.316956,551.657288 462.316956,557.230164 462.316956,563.403870 
	C452.496613,563.403870 442.458130,563.403870 432.065552,563.403870 
	C432.065552,589.230713 432.065552,614.467834 432.065552,639.986938 
	C424.288818,639.986938 416.872162,639.986938 409.070190,639.986938 
	C409.070190,614.671631 409.070190,589.448730 409.070190,563.778259 
	C398.807678,563.778259 388.915070,563.778259 378.756165,563.778259 
	C378.756165,557.735107 378.756165,552.139832 378.756165,545.849670 
	C402.058472,545.849670 425.275879,545.849670 448.991089,545.850098 
z"/>
<path fill="#FBFBFC" opacity="1.000000" stroke="none" 
	d="
M251.896179,545.972046 
	C259.344482,545.972046 266.792786,545.972046 274.491486,545.972046 
	C274.491486,577.306519 274.491486,608.457825 274.491486,639.696716 
	C266.993317,639.696716 259.472321,639.696716 251.852203,639.009888 
	C251.683884,635.888245 251.614655,633.453552 251.545410,631.018799 
	C251.622421,629.287292 251.699432,627.555786 251.761292,624.944763 
	C251.796127,598.034180 251.846146,572.003113 251.896179,545.972046 
z"/>
<path fill="#C5A659" opacity="1.000000" stroke="none" 
	d="
M636.662109,230.496246 
	C629.577820,240.005798 619.476562,243.053131 610.162842,238.743561 
	C601.498535,234.734528 596.287720,224.407928 598.245483,215.126129 
	C600.682251,203.573105 612.754211,196.256058 624.238770,199.371094 
	C635.715637,202.484024 642.350830,214.725006 638.669250,226.077652 
	C638.210388,227.492340 637.472168,228.816391 636.662109,230.496246 
z"/>
<path fill="#858A95" opacity="1.000000" stroke="none" 
	d="
M662.450928,716.504761 
	C652.107178,714.522400 646.134888,708.124084 645.484253,698.697998 
	C644.915344,690.455566 650.472961,682.604980 658.566406,680.218567 
	C667.186218,677.676819 676.529602,680.946960 680.708618,688.344482 
	C684.102600,694.352356 684.449341,700.790161 681.160278,706.928833 
	C677.308289,714.118164 670.815369,716.878296 662.450928,716.504761 
M675.693970,690.029175 
	C669.187195,682.885437 660.757690,682.190125 654.749084,688.301575 
	C649.307129,693.836609 649.660767,703.247742 655.504700,708.413574 
	C660.035034,712.418213 667.302551,712.865784 672.197571,709.441467 
	C677.824829,705.505188 679.355347,698.154175 675.693970,690.029175 
z"/>
<path fill="#848992" opacity="1.000000" stroke="none" 
	d="
M199.383789,698.090698 
	C199.381760,695.941528 199.159210,694.237854 199.447464,692.625427 
	C199.700516,691.209961 200.338821,688.911865 201.140854,688.759277 
	C202.495132,688.501709 204.113281,689.631470 206.336853,690.437561 
	C213.845810,686.845276 220.349396,687.641663 224.726883,693.254517 
	C228.651550,698.286743 228.683838,706.437744 224.798889,711.437927 
	C220.337402,717.180115 214.388824,717.826538 204.729919,713.385681 
	C204.729919,717.490356 204.729919,721.415771 204.729919,725.705261 
	C202.966476,725.855774 201.577499,725.974365 199.385300,726.161499 
	C199.385300,716.716614 199.385300,707.646240 199.383789,698.090698 
M205.371429,706.535339 
	C205.824661,707.224304 206.200195,707.982788 206.743927,708.590820 
	C209.916214,712.138123 213.731491,712.863586 217.925812,710.721436 
	C221.796463,708.744690 223.523849,703.150696 221.759415,698.483948 
	C220.133087,694.182495 216.827118,692.476135 212.341080,692.934326 
	C206.674469,693.513000 204.180344,697.952087 205.371429,706.535339 
z"/>
<path fill="#848993" opacity="1.000000" stroke="none" 
	d="
M689.450439,708.543274 
	C694.269653,709.512085 698.764954,711.176636 703.398254,711.777832 
	C706.311279,712.155823 709.570435,710.890747 710.050964,707.132935 
	C710.557861,703.169312 707.404663,702.183899 704.503540,701.261658 
	C701.342102,700.256714 698.084656,699.537720 694.961182,698.433472 
	C690.779480,696.955139 688.310730,693.944458 688.517090,689.388062 
	C688.719177,684.925293 691.309387,681.863708 695.425659,680.497437 
	C701.695557,678.416443 707.809387,678.933167 713.613037,682.458374 
	C713.248657,685.554260 712.366455,686.571411 709.058655,685.613159 
	C705.677979,684.633911 701.865723,684.340637 698.394531,684.828857 
	C696.746094,685.060730 694.407837,687.743469 694.303284,689.434631 
	C694.207458,690.984985 696.375793,693.390991 698.111816,694.187439 
	C701.545715,695.762573 705.404724,696.382446 709.023438,697.590515 
	C713.059692,698.937988 715.431274,701.768616 715.380188,706.139587 
	C715.327820,710.617737 713.018738,713.736877 708.829895,715.210449 
	C702.576172,717.410400 696.441467,717.056580 690.502747,713.920837 
	C688.070679,712.636780 687.465271,711.054993 689.450439,708.543274 
z"/>
<path fill="#82878F" opacity="1.000000" stroke="none" 
	d="
M248.478012,716.354248 
	C237.190918,716.349854 230.911987,709.987854 232.094681,700.216980 
	C233.033371,692.461975 239.842789,687.261230 247.726776,688.277954 
	C255.100861,689.228943 259.528717,695.386047 258.488556,703.883911 
	C251.522461,703.883911 244.467346,703.883911 237.294128,703.883911 
	C238.974823,710.857788 244.879303,713.644470 251.146317,710.999023 
	C252.862747,710.274536 254.965805,707.441956 256.321472,710.774597 
	C256.692291,711.686157 254.205704,714.059387 252.673691,715.332642 
	C251.767197,716.086121 250.162231,715.999146 248.478012,716.354248 
M253.315887,697.488770 
	C251.493210,693.308167 248.109833,692.163391 243.938171,692.856689 
	C240.088654,693.496399 237.902695,695.845703 237.231888,700.162964 
	C242.435852,700.162964 247.372330,700.215088 252.303589,700.078674 
	C252.772568,700.065735 253.208908,698.873047 253.315887,697.488770 
z"/>
<path fill="#838791" opacity="1.000000" stroke="none" 
	d="
M519.720459,688.162964 
	C527.642517,689.656860 529.961182,691.992310 530.343750,699.315247 
	C530.620300,704.608459 530.397705,709.927856 530.397705,715.070984 
	C529.981689,715.459656 529.607422,715.904114 529.538025,715.860657 
	C525.148193,713.117432 521.073792,716.440430 516.843140,716.491516 
	C510.741882,716.565186 506.911652,713.545654 506.692383,708.551331 
	C506.470367,703.494568 509.872223,700.424866 516.226379,700.117188 
	C519.024902,699.981628 521.835388,700.094299 524.608887,700.094299 
	C525.100098,692.495300 520.071899,690.910583 509.608307,694.971924 
	C507.284363,693.095642 507.339630,691.207092 510.168915,690.224670 
	C513.099304,689.207092 516.248840,688.820435 519.720459,688.162964 
M512.813416,705.304443 
	C512.873962,707.262695 512.624207,710.838440 513.044922,710.919189 
	C515.972778,711.480896 519.351746,712.122375 521.955872,711.112732 
	C523.784241,710.403870 524.617615,707.128540 525.895264,704.999329 
	C525.470093,704.508911 525.044922,704.018494 524.619690,703.528076 
	C520.909546,703.934448 517.199402,704.340881 512.813416,705.304443 
z"/>
<path fill="#82878F" opacity="1.000000" stroke="none" 
	d="
M618.938110,703.966064 
	C614.142700,703.965759 609.832397,703.965759 605.475830,703.965759 
	C606.721436,711.007507 613.103638,713.851562 619.912170,710.840271 
	C621.320923,710.217224 623.086121,710.399963 624.758789,710.787109 
	C621.237854,716.598633 613.041931,718.030518 607.066284,714.737366 
	C601.043274,711.418152 598.461304,703.868103 600.998047,696.993347 
	C603.328064,690.678772 610.026733,687.006897 616.642334,688.417969 
	C623.491577,689.878784 627.306641,695.507507 626.683960,703.966370 
	C624.301697,703.966370 621.862549,703.966370 618.938110,703.966064 
M606.387512,700.166016 
	C611.469910,700.166016 616.552368,700.166016 622.224731,700.166016 
	C620.942993,695.320496 618.621582,692.613403 613.892883,692.748962 
	C609.292786,692.880859 605.885315,694.578430 606.387512,700.166016 
z"/>
<path fill="#838791" opacity="1.000000" stroke="none" 
	d="
M396.156311,689.575256 
	C398.028137,692.383301 400.582123,694.867554 400.900848,697.611389 
	C401.583130,703.485474 401.109894,709.493835 401.109894,715.033997 
	C395.878510,715.529053 391.061157,716.347656 386.244415,716.344116 
	C380.868896,716.340210 377.356842,712.714478 377.378143,708.108643 
	C377.398163,703.776794 380.734070,700.668030 386.022675,700.164368 
	C387.674866,700.007019 389.348328,700.062561 391.012329,700.043152 
	C392.495850,700.025879 393.979736,700.039612 395.430756,700.039612 
	C396.008972,692.384888 390.691498,690.707703 380.539124,695.088806 
	C377.823761,692.950500 378.556824,691.228577 381.323425,689.999817 
	C386.047241,687.901794 390.890594,687.245789 396.156311,689.575256 
M387.664368,712.326111 
	C394.659943,711.816101 396.353485,710.092896 395.502106,703.858032 
	C392.959595,703.858032 390.233765,703.407776 387.759186,704.002625 
	C385.832153,704.465881 383.219818,705.895508 382.685089,707.490173 
	C381.750336,710.277893 383.878754,711.990173 387.664368,712.326111 
z"/>
<path fill="#848992" opacity="1.000000" stroke="none" 
	d="
M332.337891,690.494263 
	C338.027496,694.958008 339.309143,700.661926 337.522827,706.856384 
	C335.982971,712.195984 332.134216,715.499390 326.361786,716.242432 
	C320.556610,716.989685 315.632294,715.383423 312.505066,710.362244 
	C309.392456,705.364685 309.080444,699.916199 312.186676,694.713013 
	C315.257629,689.568970 320.204712,687.864929 325.891144,688.369446 
	C327.979004,688.554688 329.989471,689.612122 332.337891,690.494263 
M315.909332,698.625732 
	C314.589111,704.641846 316.209137,709.160706 320.364532,711.053162 
	C324.853912,713.097778 329.675659,711.507385 331.898804,707.248779 
	C334.319763,702.611206 332.862854,696.313354 328.813660,693.912109 
	C324.413269,691.302551 319.675507,692.786865 315.909332,698.625732 
z"/>
<path fill="#848993" opacity="1.000000" stroke="none" 
	d="
M367.098145,690.834473 
	C368.541992,694.269226 370.201996,697.379761 370.712494,700.668640 
	C371.292145,704.402771 370.669373,708.306763 370.893463,712.117798 
	C371.093048,715.511658 369.905609,716.794434 365.572754,715.536133 
	C365.572754,710.983521 365.708221,706.054932 365.537659,701.136963 
	C365.334900,695.290588 363.228455,693.012573 358.420227,692.943970 
	C353.285217,692.870605 350.406555,695.744873 350.098114,701.401428 
	C349.971527,703.722717 350.062531,706.055969 350.059204,708.383789 
	C350.055908,710.691772 350.058472,712.999817 350.058472,715.701721 
	C348.407471,715.822815 347.032104,715.923645 345.318268,716.049316 
	C345.318268,706.921570 345.318268,698.162964 345.318268,688.111511 
	C347.414612,689.020203 349.179626,689.785339 351.461487,690.774475 
	C355.830017,687.713684 361.211853,686.853027 367.098145,690.834473 
z"/>
<path fill="#858A95" opacity="1.000000" stroke="none" 
	d="
M544.106995,704.300964 
	C544.105591,708.242981 544.105591,711.723572 544.105591,715.631042 
	C542.541016,715.811218 541.159790,715.970215 539.362915,716.177124 
	C539.362915,706.948303 539.362915,698.067810 539.362915,688.031006 
	C541.404114,688.827576 543.077576,689.480591 544.751099,690.133667 
	C544.605164,690.482056 544.459229,690.830444 544.313293,691.178833 
	C546.571594,690.283142 548.759583,689.069763 551.101379,688.551514 
	C558.069519,687.009277 563.725281,691.062683 564.653259,698.123230 
	C564.911560,700.088867 564.817139,702.104858 564.829407,704.098083 
	C564.852722,707.891052 564.836182,711.684265 564.836182,715.773804 
	C563.029785,715.773804 561.660034,715.773804 559.784851,715.773804 
	C559.784851,711.296387 559.831238,707.010925 559.774292,702.726868 
	C559.681152,695.724731 557.715271,693.093384 552.585022,692.947327 
	C547.207703,692.794250 544.569458,695.720032 544.122559,702.343872 
	C544.089050,702.840515 544.111816,703.340942 544.106995,704.300964 
z"/>
<path fill="#858A95" opacity="1.000000" stroke="none" 
	d="
M490.521362,688.334351 
	C497.657867,690.611267 499.809601,693.380554 499.937378,700.333496 
	C500.028839,705.309570 499.955139,710.288574 499.955139,715.670715 
	C498.344208,715.810608 496.969330,715.929932 494.920776,716.107788 
	C494.920776,710.939758 494.976562,706.162659 494.906281,701.387329 
	C494.823608,695.768127 492.586548,693.115845 487.945557,692.936035 
	C482.900879,692.740540 479.998535,695.232910 479.372864,700.617065 
	C479.086121,703.084534 479.231964,705.604004 479.210907,708.100098 
	C479.190125,710.562256 479.206360,713.024719 479.206360,715.764038 
	C477.364838,715.764038 475.983337,715.764038 474.334930,715.764038 
	C474.334930,706.772278 474.334930,698.007812 474.334930,688.086792 
	C476.425171,688.872742 478.119598,689.509827 480.368927,690.355530 
	C482.892914,689.816895 486.512451,689.044556 490.521362,688.334351 
z"/>
<path fill="#82878F" opacity="1.000000" stroke="none" 
	d="
M288.429199,715.710388 
	C287.270416,715.284180 286.204803,715.182129 285.794128,714.610046 
	C285.069275,713.600098 284.743652,712.303589 284.250916,711.127075 
	C285.376556,710.889954 286.537262,710.348938 287.621063,710.474182 
	C290.564240,710.814026 293.506683,711.936340 296.385925,711.752747 
	C298.028259,711.648071 299.546417,709.595886 301.120453,708.420654 
	C299.711182,707.271606 298.465302,705.707214 296.853455,705.073059 
	C294.567047,704.173523 291.643097,704.543152 289.667145,703.298218 
	C287.403107,701.871765 284.443573,699.297546 284.406036,697.175537 
	C284.362030,694.687073 286.556122,691.169861 288.809143,689.829163 
	C294.017761,686.729492 299.600983,687.762329 305.138306,690.845337 
	C304.474243,692.193420 303.915955,693.326782 303.551117,694.067444 
	C299.771149,693.655640 296.352386,692.939026 292.971771,693.088074 
	C291.659637,693.145935 290.433777,695.160278 289.168610,696.283325 
	C290.269165,697.374146 291.188721,698.982178 292.509308,699.444336 
	C294.984406,700.310486 297.746002,700.320679 300.289459,701.037964 
	C303.979065,702.078491 306.420197,704.278198 306.149658,708.566772 
	C305.888062,712.714111 303.353577,715.155212 299.691833,715.759521 
	C296.159729,716.342468 292.449371,715.845459 288.429199,715.710388 
z"/>
<path fill="#838791" opacity="1.000000" stroke="none" 
	d="
M589.055664,688.743896 
	C591.755127,690.243103 594.072083,691.639648 596.622742,693.177124 
	C594.426331,696.177368 593.009888,696.587830 590.487915,694.661621 
	C586.630493,691.715271 581.591919,692.365295 578.736389,695.548401 
	C575.731201,698.898315 575.714661,705.663818 578.703735,708.941406 
	C581.839722,712.380005 586.571289,712.610107 590.959717,709.962463 
	C592.284485,709.163269 594.217957,709.373047 596.974365,708.952576 
	C592.649292,715.780029 587.974792,717.571411 581.551941,716.000854 
	C575.714172,714.573364 571.687744,709.718689 571.147949,703.456848 
	C570.605957,697.169250 573.714111,691.458740 579.440552,689.568848 
	C582.307800,688.622559 585.582642,688.911194 589.055664,688.743896 
z"/>
<path fill="#838791" opacity="1.000000" stroke="none" 
	d="
M448.267029,681.718018 
	C446.310699,683.410034 444.789398,685.081909 443.268097,686.753784 
	C443.619537,687.268738 443.970978,687.783752 444.322418,688.298706 
	C446.068848,688.458069 447.884552,688.381958 449.534790,688.867859 
	C450.475861,689.144897 451.146973,690.338745 451.939606,691.119812 
	C451.123840,691.705322 450.369843,692.642273 449.478638,692.799011 
	C447.906128,693.075562 446.249908,692.876404 444.296326,692.876404 
	C444.296326,700.675659 444.296326,707.947632 444.296326,715.662598 
	C442.630798,715.844421 441.259796,715.994019 439.307556,716.207092 
	C439.307556,708.401306 439.307556,700.990601 439.307556,694.540894 
	C437.098663,692.933167 435.697388,691.913269 434.296112,690.893372 
	C435.670013,689.838440 437.043915,688.783508 438.859711,687.389343 
	C439.870575,679.919373 443.185577,676.385742 449.246613,677.436523 
	C450.631805,677.676636 451.785706,679.250793 453.046082,680.210938 
	C451.598053,680.706604 450.150024,681.202209 448.267029,681.718018 
z"/>
<path fill="#858A95" opacity="1.000000" stroke="none" 
	d="
M270.804871,713.593018 
	C269.435730,714.913147 268.075623,715.780029 265.832489,717.209778 
	C265.832489,706.875183 265.832489,698.017273 265.832489,687.980347 
	C268.152710,688.943420 269.955444,689.691711 271.878937,690.490112 
	C274.216675,689.769897 277.085022,688.886230 280.685760,687.776917 
	C280.297211,690.260559 280.079712,691.650940 279.876862,692.947510 
	C272.213043,694.528625 270.912415,696.096924 270.830811,703.679626 
	C270.796844,706.832703 270.817871,709.986328 270.804871,713.593018 
z"/>
<path fill="#898F9A" opacity="1.000000" stroke="none" 
	d="
M415.069092,710.847290 
	C414.981598,712.778503 414.894318,714.229065 414.796967,715.847046 
	C413.201538,715.847046 411.923035,715.847046 410.303223,715.847046 
	C410.303223,703.371765 410.303223,690.986511 410.303223,678.158081 
	C411.605316,678.032104 412.977814,677.899353 415.069336,677.697021 
	C415.069336,688.861511 415.069336,699.614136 415.069092,710.847290 
z"/>
<path fill="#00020A" opacity="1.000000" stroke="none" 
	d="
M251.515808,546.098145 
	C251.846146,572.003113 251.796127,598.034180 251.649933,624.523926 
	C251.036331,623.732544 250.072250,622.484253 250.067520,621.232239 
	C249.977676,597.411865 249.984665,573.591064 250.048859,549.770569 
	C250.052048,548.587524 250.757156,547.406372 251.515808,546.098145 
z"/>
<path fill="#858A95" opacity="1.000000" stroke="none" 
	d="
M459.997681,692.192322 
	C459.811676,687.698608 462.316162,688.705139 464.859955,689.127258 
	C464.859955,697.995605 464.859955,706.735840 464.859955,715.754517 
	C463.304230,715.754517 461.923340,715.754517 459.996216,715.754517 
	C459.996216,707.906555 459.996216,700.289551 459.997681,692.192322 
z"/>
<path fill="#82878F" opacity="1.000000" stroke="none" 
	d="
M459.135925,680.705139 
	C460.425018,679.245361 461.658722,677.887451 463.192444,677.235962 
	C463.660828,677.037048 465.664673,678.755249 465.695709,679.639893 
	C465.737701,680.837524 464.409027,683.167236 463.926147,683.102051 
	C462.288177,682.880859 460.763702,681.819214 459.135925,680.705139 
z"/>
<path fill="#00020A" opacity="1.000000" stroke="none" 
	d="
M575.100647,579.106445 
	C575.541443,588.303040 575.614075,597.750610 575.578613,607.667236 
	C575.043213,607.664856 574.238892,607.189026 574.244263,606.722717 
	C574.350525,597.600281 574.551147,588.479004 575.100647,579.106445 
z"/>
<path fill="#00020A" opacity="1.000000" stroke="none" 
	d="
M317.026001,611.140564 
	C317.464478,615.320618 317.548157,619.754944 317.505066,624.648071 
	C317.142609,620.536133 316.906891,615.965515 317.026001,611.140564 
z"/>
<path fill="#00020A" opacity="1.000000" stroke="none" 
	d="
M575.108765,624.100037 
	C575.536499,627.636963 575.598938,631.420288 575.541382,635.662109 
	C575.195374,632.195923 574.969421,628.271179 575.108765,624.100037 
z"/>
<path fill="#00020A" opacity="1.000000" stroke="none" 
	d="
M251.206696,631.161987 
	C251.614655,633.453552 251.683884,635.888245 251.660812,638.733154 
	C251.334991,636.530640 251.101471,633.917847 251.206696,631.161987 
z"/>
<path fill="#00020A" opacity="1.000000" stroke="none" 
	d="
M575.108643,611.097717 
	C575.542725,613.977417 575.614929,617.099182 575.580322,620.678711 
	C575.231201,617.870911 574.989014,614.605408 575.108643,611.097717 
z"/>
<path fill="#00020A" opacity="1.000000" stroke="none" 
	d="
M315.992493,564.365479 
	C316.542419,565.702454 317.091736,567.466125 317.517334,569.669922 
	C316.926331,568.337463 316.459106,566.564819 315.992493,564.365479 
z"/>
<path fill="#00020A" opacity="1.000000" stroke="none" 
	d="
M317.051636,630.095703 
	C317.457672,631.023804 317.542694,632.152710 317.501617,633.690918 
	C317.160553,632.832336 316.945587,631.564392 317.051636,630.095703 
z"/>
<path fill="#00020A" opacity="1.000000" stroke="none" 
	d="
M317.058716,603.093140 
	C317.464935,604.022705 317.548798,605.152527 317.507019,606.692139 
	C317.166351,605.832458 316.951355,604.562927 317.058716,603.093140 
z"/>
<path fill="#00020A" opacity="1.000000" stroke="none" 
	d="
M341.046570,566.873779 
	C340.881409,566.036133 341.017731,565.007202 341.578918,563.974854 
	C341.785248,564.875183 341.566620,565.778870 341.046570,566.873779 
z"/>
<path fill="#00020A" opacity="1.000000" stroke="none" 
	d="
M575.136597,572.055847 
	C575.533936,572.690247 575.608887,573.506104 575.576416,574.721069 
	C575.250732,574.159180 575.032471,573.198303 575.136597,572.055847 
z"/>
<path fill="#0C101C" opacity="1.000000" stroke="none" 
	d="
M598.929138,593.985229 
	C598.855103,584.630798 598.781067,575.276306 599.062500,565.346191 
	C599.617798,564.484985 599.817505,564.199463 600.017212,563.913940 
	C607.475098,563.920166 614.958191,563.541565 622.384460,564.029114 
	C631.857666,564.651123 637.048767,570.462708 637.100891,579.486755 
	C637.151978,588.328918 631.786804,594.247253 622.325867,594.924988 
	C615.221008,595.433777 608.060547,595.166199 600.348328,594.907837 
	C599.490967,594.376038 599.210022,594.180603 598.929138,593.985229 
z"/>
<path fill="#00020A" opacity="1.000000" stroke="none" 
	d="
M599.680481,563.876587 
	C599.817505,564.199463 599.617798,564.484985 599.182922,564.891846 
	C599.079773,564.621887 599.211792,564.230591 599.680481,563.876587 
z"/>
<path fill="#00020A" opacity="1.000000" stroke="none" 
	d="
M598.898926,594.316650 
	C599.210022,594.180603 599.490967,594.376038 599.890564,594.802490 
	C599.629089,594.905151 599.248840,594.776611 598.898926,594.316650 
z"/>
<path fill="#0F131D" opacity="1.000000" stroke="none" 
	d="
M722.692444,569.525452 
	C727.396118,580.651489 731.942322,591.444336 736.679749,602.691162 
	C726.579651,602.691162 717.061523,602.691162 707.062683,602.691162 
	C707.413330,601.505127 707.645752,600.311523 708.109070,599.215393 
	C712.168396,589.610962 716.243591,580.012878 720.417236,570.457947 
	C720.685120,569.844666 721.809265,569.605469 722.692444,569.525452 
z"/>
<path fill="#0F131D" opacity="1.000000" stroke="none" 
	d="
M511.889313,571.209595 
	C516.441345,581.867249 520.872803,592.174194 525.450378,602.820984 
	C515.224854,602.820984 505.640747,602.820984 495.227234,602.820984 
	C500.209290,591.049194 505.014923,579.694153 510.083374,567.718140 
	C510.809875,569.072021 511.289307,569.965454 511.889313,571.209595 
z"/>
<path fill="#0C101C" opacity="1.000000" stroke="none" 
	d="
M675.899780,690.350830 
	C679.355347,698.154175 677.824829,705.505188 672.197571,709.441467 
	C667.302551,712.865784 660.035034,712.418213 655.504700,708.413574 
	C649.660767,703.247742 649.307129,693.836609 654.749084,688.301575 
	C660.757690,682.190125 669.187195,682.885437 675.899780,690.350830 
z"/>
<path fill="#0C101C" opacity="1.000000" stroke="none" 
	d="
M205.237091,706.148132 
	C204.180344,697.952087 206.674469,693.513000 212.341080,692.934326 
	C216.827118,692.476135 220.133087,694.182495 221.759415,698.483948 
	C223.523849,703.150696 221.796463,708.744690 217.925812,710.721436 
	C213.731491,712.863586 209.916214,712.138123 206.743927,708.590820 
	C206.200195,707.982788 205.824661,707.224304 205.237091,706.148132 
z"/>
<path fill="#0B0F1B" opacity="1.000000" stroke="none" 
	d="
M253.488144,697.858459 
	C253.208908,698.873047 252.772568,700.065735 252.303589,700.078674 
	C247.372330,700.215088 242.435852,700.162964 237.231888,700.162964 
	C237.902695,695.845703 240.088654,693.496399 243.938171,692.856689 
	C248.109833,692.163391 251.493210,693.308167 253.488144,697.858459 
z"/>
<path fill="#0B0F1B" opacity="1.000000" stroke="none" 
	d="
M513.151367,705.025879 
	C517.199402,704.340881 520.909546,703.934448 524.619690,703.528076 
	C525.044922,704.018494 525.470093,704.508911 525.895264,704.999329 
	C524.617615,707.128540 523.784241,710.403870 521.955872,711.112732 
	C519.351746,712.122375 515.972778,711.480896 513.044922,710.919189 
	C512.624207,710.838440 512.873962,707.262695 513.151367,705.025879 
z"/>
<path fill="#0B0F1B" opacity="1.000000" stroke="none" 
	d="
M606.009644,700.008911 
	C605.885315,694.578430 609.292786,692.880859 613.892883,692.748962 
	C618.621582,692.613403 620.942993,695.320496 622.224731,700.166016 
	C616.552368,700.166016 611.469910,700.166016 606.009644,700.008911 
z"/>
<path fill="#0B0F1B" opacity="1.000000" stroke="none" 
	d="
M387.245544,712.292236 
	C383.878754,711.990173 381.750336,710.277893 382.685089,707.490173 
	C383.219818,705.895508 385.832153,704.465881 387.759186,704.002625 
	C390.233765,703.407776 392.959595,703.858032 395.502106,703.858032 
	C396.353485,710.092896 394.659943,711.816101 387.245544,712.292236 
z"/>
<path fill="#0C101C" opacity="1.000000" stroke="none" 
	d="
M316.023193,698.254700 
	C319.675507,692.786865 324.413269,691.302551 328.813660,693.912109 
	C332.862854,696.313354 334.319763,702.611206 331.898804,707.248779 
	C329.675659,711.507385 324.853912,713.097778 320.364532,711.053162 
	C316.209137,709.160706 314.589111,704.641846 316.023193,698.254700 
z"/>
</svg>